<svg width="58" height="58" viewBox="0 0 58 58" fill="none" xmlns="http://www.w3.org/2000/svg">
<g clip-path="url(#clip0_181_1836)">
<path fill-rule="evenodd" clip-rule="evenodd" d="M47.0299 20.1C50.2168 23.0256 53.7984 25.4896 57.6699 27.42C58.1299 27.62 58.0199 28.9 57.4399 29.6C51.6262 36.5498 43.6493 35.7524 35.6723 34.9551C28.062 34.1944 20.4518 33.4338 14.7199 39.4L6.79989 11.04C6.72129 10.7519 6.6106 10.4734 6.46989 10.21C12.2049 4.1569 19.8484 4.92097 27.4927 5.68512C35.4701 6.48257 43.4485 7.28012 49.2599 0.330002C49.8399 -0.369999 50.3899 -0.0699985 50.2699 0.950002C49.5116 7.08229 48.339 13.1562 46.7599 19.13C46.6572 19.4784 46.762 19.8548 47.0299 20.1ZM15.7457 57.6524L14.6779 57.9508C13.6508 58.2377 12.5855 57.6378 12.2985 56.6107L0.0898903 12.9219C-0.268838 11.6379 0.481217 10.3062 1.76519 9.94745L1.90309 9.90895C2.51964 9.73665 3.17938 9.81634 3.73718 10.1305C4.29497 10.4446 4.70512 10.9675 4.87739 11.5841L17.0857 55.2729C17.3727 56.3 16.7728 57.3653 15.7457 57.6524Z" fill="url(#paint0_linear_181_1836)"/>
</g>
<defs>
<linearGradient id="paint0_linear_181_1836" x1="57.9999" y1="5.19197e-05" x2="-0.000113474" y2="68.5001" gradientUnits="userSpaceOnUse">
<stop stop-color="white" stop-opacity="0.4"/>
<stop offset="1" stop-color="white"/>
</linearGradient>
<clipPath id="clip0_181_1836">
<rect width="58" height="58" fill="white"/>
</clipPath>
</defs>
</svg>
