<svg width="71" height="71" viewBox="0 0 71 71" fill="none" xmlns="http://www.w3.org/2000/svg">
<path fill-rule="evenodd" clip-rule="evenodd" d="M50.1125 8.875C54.0796 8.875 57.8959 10.4429 60.7033 13.2563C63.5138 16.0637 65.0846 19.8504 65.0846 23.8146V47.1854C65.0846 55.4392 58.3692 62.125 50.1125 62.125H20.8871C12.6304 62.125 5.91797 55.4392 5.91797 47.1854V23.8146C5.91797 15.5608 12.6008 8.875 20.8871 8.875H50.1125ZM54.8192 28.2225L55.0559 27.9858C55.7629 27.1279 55.7629 25.8854 55.0233 25.0275C54.6121 24.5867 54.0471 24.3175 53.4584 24.2583C52.8371 24.2258 52.2455 24.4358 51.7988 24.85L38.4596 35.5C36.7438 36.923 34.2854 36.923 32.543 35.5L19.2305 24.85C18.3104 24.1696 17.0383 24.2583 16.2721 25.0571C15.4734 25.8558 15.3846 27.1279 16.0621 28.0154L16.4496 28.4L29.9101 38.9021C31.5667 40.2037 33.5754 40.9137 35.6788 40.9137C37.7763 40.9137 39.8205 40.2037 41.4742 38.9021L54.8192 28.2225Z" fill="url(#paint0_linear_181_1852)"/>
<defs>
<linearGradient id="paint0_linear_181_1852" x1="65.0001" y1="9" x2="6.00012" y2="62" gradientUnits="userSpaceOnUse">
<stop stop-color="white" stop-opacity="0.4"/>
<stop offset="1" stop-color="white"/>
</linearGradient>
</defs>
</svg>
