<svg width="71" height="71" viewBox="0 0 71 71" fill="none" xmlns="http://www.w3.org/2000/svg">
<path fill-rule="evenodd" clip-rule="evenodd" d="M51.838 21.8798V26.416C56.9333 28.0064 60.6458 32.619 60.6458 38.1282V52.7332C60.6458 59.5535 54.9914 65.0833 48.0203 65.0833H22.9827C16.0086 65.0833 10.3541 59.5535 10.3541 52.7332V38.1282C10.3541 32.619 14.0696 28.0064 19.1619 26.416V21.8798C19.192 13.0604 26.4968 5.91666 35.4549 5.91666C44.5332 5.91666 51.838 13.0604 51.838 21.8798ZM35.5149 11.0613C41.6173 11.0613 46.5773 15.912 46.5773 21.8798V25.778H24.4225V21.821C24.4526 15.8826 29.4126 11.0613 35.5149 11.0613ZM38.1302 48.6792C38.1302 50.1197 36.9578 51.2662 35.4849 51.2662C34.0419 51.2662 32.8696 50.1197 32.8696 48.6792V42.1528C32.8696 40.7417 34.0419 39.5951 35.4849 39.5951C36.9578 39.5951 38.1302 40.7417 38.1302 42.1528V48.6792Z" fill="url(#paint0_linear_181_1978)"/>
<defs>
<linearGradient id="paint0_linear_181_1978" x1="60.9999" y1="6.00003" x2="9.99994" y2="65" gradientUnits="userSpaceOnUse">
<stop stop-color="white" stop-opacity="0.4"/>
<stop offset="1" stop-color="white"/>
</linearGradient>
</defs>
</svg>
