<svg width="159" height="113" viewBox="0 0 159 113" fill="none" xmlns="http://www.w3.org/2000/svg">
<path fill-rule="evenodd" clip-rule="evenodd" d="M111.624 35.1302C111.173 35.5686 110.56 35.8191 109.916 35.8191C107.53 35.8191 105.596 37.6982 105.596 39.9843C105.596 42.2862 107.507 44.1558 109.87 44.1808C111.202 44.1934 112.333 45.0953 112.333 46.3887V54.4216C112.333 61.183 106.692 66.6667 99.7286 66.6667H89.2193C88.1329 66.6667 87.2528 65.8117 87.2528 64.7563V57.9918C87.2528 56.6764 86.189 55.643 84.835 55.643C83.5133 55.643 82.4172 56.6764 82.4172 57.9918V64.7563C82.4172 65.8117 81.5372 66.6667 80.454 66.6667H58.2715C51.3405 66.6667 45.6667 61.1861 45.6667 54.4216V46.3887C45.6667 45.0953 46.7983 44.1934 48.1297 44.1808C50.4959 44.1558 52.4043 42.2862 52.4043 39.9843C52.4043 37.7608 50.5346 36.0697 48.0845 36.0697C47.4398 36.0697 46.8273 35.8191 46.376 35.3807C45.9246 34.9423 45.6667 34.3472 45.6667 33.7209V25.6097C45.6667 18.8577 51.3534 13.3333 58.3038 13.3333H80.454C81.5372 13.3333 82.4172 14.1883 82.4172 15.2437V23.2609C82.4172 24.5449 83.5133 25.6097 84.835 25.6097C86.189 25.6097 87.2528 24.5449 87.2528 23.2609V15.2437C87.2528 14.1883 88.1329 13.3333 89.2193 13.3333H99.7286C106.692 13.3333 112.333 18.8139 112.333 25.5784V33.4703C112.333 34.0967 112.076 34.6917 111.624 35.1302ZM84.835 49.5674C86.189 49.5674 87.2528 48.5026 87.2528 47.2186V34.6917C87.2528 33.4077 86.189 32.3429 84.835 32.3429C83.5133 32.3429 82.4172 33.4077 82.4172 34.6917V47.2186C82.4172 48.5026 83.5133 49.5674 84.835 49.5674Z" fill="url(#paint0_linear_181_1814)"/>
<path d="M13.96 105.7C13.2533 106.553 12.42 107.207 11.46 107.66C10.5 108.1 9.42667 108.32 8.24 108.32C7.17333 108.32 6.18 108.127 5.26 107.74C4.35333 107.353 3.56667 106.827 2.9 106.16C2.23333 105.493 1.70667 104.707 1.32 103.8C0.933333 102.88 0.74 101.893 0.74 100.84C0.74 99.7867 0.933333 98.8067 1.32 97.9C1.70667 96.98 2.23333 96.1867 2.9 95.52C3.56667 94.8533 4.35333 94.3267 5.26 93.94C6.18 93.5533 7.17333 93.36 8.24 93.36C9.38667 93.36 10.3933 93.56 11.26 93.96C12.14 94.36 12.92 94.94 13.6 95.7L11.7 97.54C11.2733 97.0467 10.78 96.6533 10.22 96.36C9.67333 96.0667 9.02 95.92 8.26 95.92C7.59333 95.92 6.96667 96.04 6.38 96.28C5.79333 96.5067 5.28 96.8333 4.84 97.26C4.41333 97.6867 4.07333 98.2067 3.82 98.82C3.56667 99.42 3.44 100.093 3.44 100.84C3.44 101.587 3.56667 102.267 3.82 102.88C4.07333 103.48 4.41333 103.993 4.84 104.42C5.28 104.847 5.79333 105.18 6.38 105.42C6.96667 105.647 7.59333 105.76 8.26 105.76C9.06 105.76 9.76667 105.6 10.38 105.28C11.0067 104.947 11.56 104.48 12.04 103.88L13.96 105.7ZM16.8875 93.68H19.5875V108H16.8875V93.68ZM23.2334 93.68H26.3734L32.1334 103.28H32.2934L32.1334 100.52V93.68H34.8134V108H31.9734L25.8934 97.86H25.7334L25.8934 100.62V108H23.2334V93.68ZM41.1466 96.24V99.56H46.8866V102.12H41.1466V105.44H47.5266V108H38.4466V93.68H47.5266V96.24H41.1466ZM50.7691 93.68H53.4291L57.8091 101.26H57.9691L62.3491 93.68H65.0291V108H62.3491V100.94L62.5091 98.54H62.3491L58.7091 104.96H57.0891L53.4291 98.54H53.2691L53.4291 100.94V108H50.7691V93.68ZM72.8575 93.68H75.9375L81.3175 108H78.3375L77.1575 104.58H71.6375L70.4575 108H67.4775L72.8575 93.68ZM76.2775 102.1L74.9975 98.52L74.4775 96.78H74.3175L73.7975 98.52L72.5175 102.1H76.2775ZM91.1477 108V96.24H87.1477V93.68H97.8477V96.24H93.8477V108H91.1477ZM100.528 93.68H103.228V108H100.528V93.68ZM119.198 105.7C118.492 106.553 117.658 107.207 116.698 107.66C115.738 108.1 114.665 108.32 113.478 108.32C112.412 108.32 111.418 108.127 110.498 107.74C109.592 107.353 108.805 106.827 108.138 106.16C107.472 105.493 106.945 104.707 106.558 103.8C106.172 102.88 105.978 101.893 105.978 100.84C105.978 99.7867 106.172 98.8067 106.558 97.9C106.945 96.98 107.472 96.1867 108.138 95.52C108.805 94.8533 109.592 94.3267 110.498 93.94C111.418 93.5533 112.412 93.36 113.478 93.36C114.625 93.36 115.632 93.56 116.498 93.96C117.378 94.36 118.158 94.94 118.838 95.7L116.938 97.54C116.512 97.0467 116.018 96.6533 115.458 96.36C114.912 96.0667 114.258 95.92 113.498 95.92C112.832 95.92 112.205 96.04 111.618 96.28C111.032 96.5067 110.518 96.8333 110.078 97.26C109.652 97.6867 109.312 98.2067 109.058 98.82C108.805 99.42 108.678 100.093 108.678 100.84C108.678 101.587 108.805 102.267 109.058 102.88C109.312 103.48 109.652 103.993 110.078 104.42C110.518 104.847 111.032 105.18 111.618 105.42C112.205 105.647 112.832 105.76 113.498 105.76C114.298 105.76 115.005 105.6 115.618 105.28C116.245 104.947 116.798 104.48 117.278 103.88L119.198 105.7ZM122.126 93.68H124.826V99.82H124.986L130.226 93.68H133.486V93.84L128.306 99.76L134.026 107.84V108H130.726L126.466 101.9L124.826 103.8V108H122.126V93.68ZM138.965 96.24V99.56H144.705V102.12H138.965V105.44H145.345V108H136.265V93.68H145.345V96.24H138.965ZM151.627 108V96.24H147.627V93.68H158.327V96.24H154.327V108H151.627Z" fill="#36CC60"/>
<defs>
<linearGradient id="paint0_linear_181_1814" x1="113" y1="14" x2="45.0001" y2="66" gradientUnits="userSpaceOnUse">
<stop stop-color="#36CC60" stop-opacity="0.4"/>
<stop offset="1" stop-color="#36CC60"/>
</linearGradient>
</defs>
</svg>
